<svg xmlns="http://www.w3.org/2000/svg" viewBox="0 0 245.4 220.9">
  <path fill="#fa5c5c" d="M32 1.5C21.3 8 0 32.1 0 38.5V49c0 13.3 12.5 25 23.8 25a25 25 0 0 0 24.9-24.6c0 13.4 11 24.6 24.5 24.6a24.4 24.4 0 0 0 24.2-24.6 25.3 25.3 0 0 0 50.6 0A24.4 24.4 0 0 0 172.2 74a24.7 24.7 0 0 0 24.5-24.6A25 25 0 0 0 221.6 74c11.3 0 23.8-11.7 23.8-25V38.5c0-6.4-21.3-30.6-32-37C180 .4 152.9.2 122.7.2 92.4.2 62-.8 32 1.5zM43 74a28.5 28.5 0 0 1-20 8c-.9 0-1.8-.2-2.6-.5a408.9 408.9 0 0 0-1.8 42.1c.1 24-2.4 77.4 10.5 90.5 20 4.7 56.7 6.8 93.6 6.8s73.6-2.1 93.5-6.8c13-13.1 10.4-66.6 10.6-90.5 0-14-.6-28.8-1.8-42-.8.2-1.8.4-2.7.4a29 29 0 0 1-20-8 28.2 28.2 0 0 1-5-6.1c-1 2.2-2.9 4.4-4.5 6a28.5 28.5 0 0 1-44.6-6.1A29 29 0 0 1 122.7 82a29 29 0 0 1-25.5-14.3A28.4 28.4 0 0 1 52.6 74c-1.6-2-3.4-4-4.6-6.1-.3.7-2.6 3.7-5 6zm58 30.1a217 217 0 0 1 43.4 0c9-9.7 16.1-9.7 22.1-9.7s23.5-.7 32 30l11.5 41.1c8.5 30.6-2.7 31.7-16.7 31.4-20.8-.4-32.3-15.8-32.3-31a255.4 255.4 0 0 1-76.6 0c0 15.2-11.5 30.6-32.3 31-14 .3-25.3-.8-16.7-31.4l11.5-41.1c8.5-30.7 26-30 32-30s13.1 0 22 9.7zm-4.1 41 14.3-.5V157h23v-12.5l14.3.6c-4-7.2-25.8-27.3-25.8-27.3s-21.9 20.1-25.8 27.3z"/>
</svg>
