<svg xmlns="http://www.w3.org/2000/svg" viewBox="0 0 77.16 59.53">
  <path fill="#ff5a16" d="M31.65 18.33c-4.28-7.36-17.1-4.88-17.1 5.83 0 1.57-.63 10.04 15.15 18.78.3.17.92.5 1.95.5 1.04 0 1.65-.33 1.96-.5 15.78-8.74 15.14-17.21 15.14-18.78 0-10.71-12.82-13.2-17.1-5.83Z"/>
  <path fill="#202020" d="M31.06 0c-8.85 0-14.12.15-18.38 1.29-1.7.45-8.85 2.96-11.4 10.08C-.2 15.54-.13 18.68.2 25.45c.34 6.92 1.33 14.41 4.65 20.34a25.85 25.85 0 0 0 8.7 9.47c4.33 2.72 10.08 4.27 17.51 4.27h.07c9.7-.1 16.05-2.67 20.87-6.91a29.2 29.2 0 0 0 8.44-13.39c1.43-.15 2.8-.4 4.17-.83 2.84-.92 5.28-2.7 7.23-4.65 3.7-3.69 5.32-9 5.32-14.34 0-4.37-1.38-8.97-4.58-12.44-3.2-3.48-7.87-5.55-13.33-6.3C55.89.21 53.83 0 31.06 0Zm0 6.22c22.75 0 24.02.15 27.34.6 8.9 1.24 12.55 6.2 12.55 12.6 0 4.45-.95 7.39-3.5 9.93-3.15 3.16-5.5 3.89-12 3.89-.78 5.33-3.52 11.16-7.55 14.7-4.12 3.63-7.88 5.33-16.84 5.37-13.2.06-17.7-5.27-20.84-10.67-1.78-3.05-3.8-10.48-3.8-17.19 0-6.95-.3-9.1.72-11.99 1.73-4.85 5.2-5.65 7.15-6.17 2.79-.75 8.07-1.07 16.77-1.07Zm26.53 7.36c-1.57 0-2.08.84-2.08 1.6v9.73c0 .9 1.07 1.45 2.1 1.45.6 0 3.1.17 5.05-1.86 1.7-1.75 1.88-6.18.54-8.21-1.01-1.55-2.42-2.71-5.61-2.71Z"/>
</svg>
