<?xml version="1.0" encoding="UTF-8" standalone="no"?>
<svg
   id="Layer_1"
   viewBox="0 0 143 36"
   version="1.1"
   sodipodi:docname="kofi_button_blue.svg"
   xml:space="preserve"
   inkscape:version="1.2 (dc2aedaf03, 2022-05-15)"
   width="143"
   height="36"
   xmlns:inkscape="http://www.inkscape.org/namespaces/inkscape"
   xmlns:sodipodi="http://sodipodi.sourceforge.net/DTD/sodipodi-0.dtd"
   xmlns="http://www.w3.org/2000/svg"
   xmlns:svg="http://www.w3.org/2000/svg"><sodipodi:namedview
     id="namedview79"
     pagecolor="#ffffff"
     bordercolor="#666666"
     borderopacity="1.0"
     inkscape:showpageshadow="2"
     inkscape:pageopacity="0.0"
     inkscape:pagecheckerboard="0"
     inkscape:deskcolor="#d1d1d1"
     showgrid="false"
     inkscape:zoom="5.12"
     inkscape:cx="64.648438"
     inkscape:cy="-9.2773438"
     inkscape:window-width="1680"
     inkscape:window-height="971"
     inkscape:window-x="1911"
     inkscape:window-y="-9"
     inkscape:window-maximized="1"
     inkscape:current-layer="Layer_1" /><defs
     id="defs26"><style
       id="style2">.cls-1{fill:url(#linear-gradient);}.cls-2{fill:#fff;}.cls-3{fill:#ff5e5b;}.cls-4{fill:url(#linear-gradient-2);}</style></defs><rect
     class="cls-1"
     y="0"
     width="143"
     height="36"
     rx="18"
     ry="18"
     id="rect28"
     style="fill:#17bee5;fill-opacity:1;stroke-width:0.426036"
     x="0" /><g
     id="Layer_1-2"
     transform="matrix(0.27863382,0,0,0.27863382,3.2822675,6.5665254)"><g
       id="Layer_1-3"><g
         id="g38"><path
           class="cls-2"
           d="M 79.95,45.15 C 77.06,45.47 74.65,45.3 74.65,45.3 V 27.18 H 78.34 C 80.75,27.18 83,28.14 84.59,30.07 85.71,31.36 86.52,33.12 86.52,35.69 86.52,41.62 83.47,44.02 79.95,45.14 Z M 95.51,32.48 C 94.39,26.86 91.5,23.34 88.29,21.25 85.09,19 81.23,17.88 77.38,17.88 H 22.19 C 20.26,17.88 19.46,19.81 19.46,20.77 V 21.41 C 19.46,21.41 19.3,45.8 19.61,58.95 20.09,66.65 27.79,66.65 27.79,66.65 27.79,66.65 52.97,66.65 65.17,66.5 65.81,66.5 66.29,66.5 66.93,66.35 73.82,64.59 74.47,58.17 74.47,54.63 88.28,55.25 98.07,45.46 95.51,32.47 Z"
           id="path30" /><g
           id="g36"><path
             d="M 97.51,32.1 V 32.1 32.07 C 96.14,25.2 92.37,21.48 89.44,19.57 86.01,17.17 81.74,15.85 77.39,15.85 H 22.19 C 19.09,15.85 17.43,18.71 17.43,20.77 V 21.4 C 17.43,21.64 17.28,45.96 17.58,59 17.58,59.03 17.58,59.05 17.58,59.08 17.89,64.04 20.69,66.41 22.99,67.52 25.37,68.67 27.69,68.69 27.79,68.69 V 68.69 C 28.82,68.69 53.21,68.69 65.17,68.54 65.86,68.54 66.52,68.54 67.39,68.33 H 67.42 C 71.06,67.39 73.65,65.26 75.12,62 75.82,60.46 76.24,58.72 76.4,56.69 79.74,56.61 82.87,55.95 85.73,54.73 88.74,53.45 91.29,51.61 93.31,49.26 97.27,44.66 98.75,38.56 97.48,32.1 Z M 21.65,58.87 C 21.35,46.05 21.49,22.42 21.5,21.41 V 20.78 C 21.5,20.72 21.65,19.91 22.2,19.91 H 77.4 C 80.93,19.91 84.39,20.98 87.14,22.91 87.16,22.92 87.18,22.94 87.2,22.95 90.52,25.11 92.65,28.45 93.53,32.87 94.56,38.09 93.4,42.97 90.27,46.61 86.74,50.71 81.02,52.9 74.58,52.61 74.03,52.58 73.48,52.79 73.08,53.17 72.68,53.55 72.45,54.09 72.45,54.64 72.45,60.16 70.49,63.35 66.46,64.38 66.06,64.48 65.77,64.48 65.2,64.48 H 65.16 C 54.55,64.61 34.06,64.63 28.03,64.63 H 27.81 C 27.81,64.63 26.29,64.6 24.78,63.87 22.86,62.94 21.81,61.26 21.66,58.87 Z"
             id="path32" /><path
             d="M 74.51,47.33 C 74.58,47.33 75.24,47.38 76.27,47.38 77.6,47.38 78.92,47.31 80.17,47.17 80.3,47.16 80.43,47.13 80.56,47.09 85.86,45.41 88.55,41.57 88.55,35.7 88.55,32.94 87.74,30.61 86.14,28.77 84.2,26.44 81.43,25.15 78.34,25.15 H 74.65 C 73.53,25.15 72.62,26.06 72.62,27.18 V 45.3 C 72.62,46.36 73.45,47.25 74.51,47.33 Z M 76.68,43.31 V 29.21 H 78.34 C 80.21,29.21 81.88,29.98 83.03,31.37 L 83.06,31.41 C 84.02,32.52 84.49,33.92 84.49,35.7 84.49,39.76 83,41.99 79.52,43.16 78.61,43.25 77.66,43.31 76.68,43.32 Z"
             id="path34" /></g></g><path
         class="cls-3"
         d="M 46.57,56.38 C 47.21,56.7 47.53,56.38 47.53,56.38 47.53,56.38 56.35,48.36 60.37,43.71 63.89,39.54 64.06,32.64 58.12,30.08 52.02,27.51 47.05,33.13 47.05,33.13 42.72,28.32 36.14,28.64 33.09,31.84 30.04,35.04 31.16,40.51 33.41,43.71 35.49,46.6 44.8,54.94 46.25,56.23 46.25,56.06 46.42,56.23 46.57,56.38 Z"
         id="path40" /><path
         class="cls-4"
         d="M 46.87,56.61 C 47.23,56.68 47.54,56.37 47.54,56.37 47.54,56.37 56.36,48.35 60.38,43.7 63.9,39.53 64.07,32.63 58.13,30.07 52.03,27.5 47.06,33.12 47.06,33.12 42.73,28.31 36.15,28.63 33.1,31.83 30.05,35.03 31.17,40.5 33.42,43.7 35.38,46.43 45.23,55.29 46.46,56.39 46.58,56.5 46.72,56.58 46.88,56.6 Z"
         id="path42"
         style="fill:#ff5f5f;fill-opacity:1" /></g></g><text
     xml:space="preserve"
     style="font-style:normal;font-variant:normal;font-weight:normal;font-stretch:normal;font-size:11.929px;line-height:0;font-family:Nunito;-inkscape-font-specification:'Nunito, @wght=700';font-variant-ligatures:normal;font-variant-caps:normal;font-variant-numeric:normal;font-variant-east-asian:normal;font-variation-settings:'wght' 700;letter-spacing:0.732781px;word-spacing:-0.426036px;display:inline;fill:#ffffff;fill-opacity:1;stroke:none;stroke-width:0.297279"
     x="34.632839"
     y="21.811543"
     id="text497"><tspan
       id="tspan495"
       x="34.632839"
       y="21.811543"
       style="font-style:normal;font-variant:normal;font-weight:normal;font-stretch:normal;font-size:11.929px;line-height:1.75;font-family:Nunito;-inkscape-font-specification:'Nunito, @wght=700';font-variant-ligatures:normal;font-variant-caps:normal;font-variant-numeric:normal;font-variant-east-asian:normal;font-variation-settings:'wght' 700;fill:#ffffff;fill-opacity:1;stroke-width:0.297279"
       sodipodi:role="line"
       dx="0 0 0 0 0 -0.29822487 0.29822487 -0.30674559 0.30674559 0 -0.25562131 0.089467451 -0.24710059 0 -0.21301776">Buy Me a Coffee</tspan></text></svg>
