<svg xmlns="http://www.w3.org/2000/svg" xml:space="preserve" width="143" height="36">
  <rect width="143" height="36" fill="#17bee5" rx="18" ry="18"/>
  <path fill="#fff" d="M25.56 19.15c-.8.09-1.48.04-1.48.04v-5.05h1.03a2.28 2.28 0 0 1 2.28 2.37c0 1.65-.85 2.32-1.83 2.63Zm4.33-3.53a4.66 4.66 0 0 0-2-3.13 5.3 5.3 0 0 0-3.05-.94H9.47c-.54 0-.77.54-.77.8v.18s-.04 6.8.05 10.46c.13 2.15 2.28 2.15 2.28 2.15s7.01 0 10.41-.04c.18 0 .31 0 .5-.05 1.91-.49 2.1-2.28 2.1-3.26 3.84.17 6.57-2.56 5.85-6.18Z"/>
  <path d="M30.45 15.51A5.22 5.22 0 0 0 28.2 12a5.9 5.9 0 0 0-3.35-1.03H9.47c-.87 0-1.33.8-1.33 1.37v.18c0 .07-.04 6.84.04 10.48v.02a2.63 2.63 0 0 0 1.5 2.35 3.4 3.4 0 0 0 1.35.33c.28 0 7.08 0 10.41-.05.2 0 .38 0 .62-.05a3.08 3.08 0 0 0 2.15-1.77c.2-.43.32-.91.36-1.48.93-.02 1.8-.2 2.6-.54a5.53 5.53 0 0 0 3.27-6.3ZM9.31 22.97c-.08-3.57-.04-10.16-.04-10.44v-.17c0-.02.04-.25.2-.25h15.38c.98 0 1.95.3 2.71.84l.02.01a4.1 4.1 0 0 1 1.76 2.77 4.42 4.42 0 0 1-.9 3.82 5.36 5.36 0 0 1-4.38 1.68.57.57 0 0 0-.6.56c0 1.54-.54 2.43-1.66 2.71-.11.03-.2.03-.35.03h-.01c-2.96.04-8.67.04-10.35.04h-.06s-.42 0-.84-.2c-.54-.27-.83-.73-.87-1.4Z"/>
  <path d="M24.04 19.75c.02 0 .2.02.5.02a9.84 9.84 0 0 0 1.19-.08c1.48-.47 2.23-1.54 2.23-3.18a2.85 2.85 0 0 0-2.85-2.94h-1.03a.57.57 0 0 0-.56.57v5.05c0 .3.23.54.52.56Zm.6-1.12v-3.92h.47c.52 0 .99.21 1.3.6h.02c.26.32.4.7.4 1.2 0 1.14-.42 1.76-1.4 2.08-.24.03-.5.04-.78.05Z"/>
  <path fill="#ff5e5b" d="M16.26 22.28c.18.09.27 0 .27 0s2.45-2.24 3.57-3.53c.98-1.17 1.03-3.09-.62-3.8-1.7-.72-3.09.85-3.09.85-1.2-1.34-3.04-1.25-3.89-.36-.85.89-.54 2.41.1 3.3.57.81 3.17 3.13 3.57 3.5 0-.05.05 0 .09.04Z"/>
  <path fill="#ff5f5f" d="M16.34 22.34c.1.02.19-.07.19-.07s2.46-2.23 3.58-3.53c.98-1.16 1.02-3.08-.63-3.8-1.7-.71-3.09.85-3.09.85-1.2-1.34-3.04-1.25-3.88-.35-.85.89-.54 2.41.08 3.3.55.76 3.3 3.23 3.64 3.54.03.03.07.05.11.06Z"/>
  <g style="line-height:0;-inkscape-font-specification:&quot;Nunito, @wght=700&quot;;font-variation-settings:&quot;wght&quot;700" word-spacing="-.43">
    <path fill="#fff" d="M36.36 21.81q-.4 0-.6-.2-.2-.22-.2-.61v-6.79q0-.4.2-.6.2-.2.6-.2h2.87q.88 0 1.5.25.62.27.94.76.33.48.33 1.16 0 .77-.44 1.3-.44.52-1.2.7v-.18q.88.13 1.37.67.49.53.49 1.4 0 1.11-.76 1.73-.76.61-2.1.61Zm.66-1.16h2.15q.8 0 1.19-.3.38-.33.38-.96 0-.64-.38-.95-.38-.31-1.2-.31h-2.14Zm0-3.68h1.94q.79 0 1.17-.3.4-.31.4-.9 0-.6-.4-.9-.38-.31-1.17-.31h-1.94Zm9.44 4.96q-.73 0-1.2-.26-.48-.28-.72-.81-.23-.54-.23-1.34v-2.89q0-.38.2-.56.18-.19.54-.19.36 0 .55.2.2.17.2.55v2.92q0 .62.25.91.25.3.8.3.6 0 .98-.4.38-.42.38-1.1v-2.63q0-.38.2-.56.18-.19.54-.19.36 0 .55.2.2.17.2.55v4.51q0 .77-.72.77-.35 0-.54-.2-.2-.2-.2-.57v-.9l.18.35q-.25.65-.77 1-.5.34-1.19.34Zm7.01 2.12q-.27 0-.43-.14-.17-.13-.2-.36-.03-.22.08-.47l.8-1.8v.62l-2.16-5.03q-.1-.26-.07-.49.03-.22.21-.35.2-.15.51-.15.28 0 .45.13.16.12.3.47l1.6 4.02h-.35l1.64-4.03q.13-.34.31-.46.18-.13.48-.13.26 0 .42.15.15.13.19.35.03.22-.08.48l-2.9 6.62q-.16.34-.34.45-.18.12-.46.12Zm9.93-2.15q-.34 0-.52-.18-.18-.2-.18-.53v-7.17q0-.34.2-.52.18-.2.52-.2.3 0 .46.13.18.1.32.38l2.95 5.45h-.38l2.95-5.45q.14-.28.3-.38.17-.12.47-.12.34 0 .51.19.18.18.18.52v7.17q0 .34-.18.53-.16.19-.5.19-.34 0-.52-.2-.18-.18-.18-.52v-5.52h.26l-2.5 4.57q-.12.2-.25.3-.13.1-.36.1-.23 0-.37-.1-.14-.11-.25-.3l-2.53-4.58h.29v5.53q0 .34-.18.53-.17.19-.52.19Zm12.8.03q-1 0-1.7-.37-.72-.37-1.12-1.05-.38-.68-.38-1.6t.37-1.6q.38-.68 1.04-1.06.67-.4 1.51-.4.62 0 1.11.21.5.2.85.59.36.38.54.93.19.53.19 1.21 0 .22-.16.34-.14.1-.41.1H74.2v-.85h3.35l-.2.17q0-.54-.16-.91-.15-.37-.46-.56-.3-.2-.76-.2-.5 0-.86.23-.34.23-.53.66-.18.42-.18 1v.08q0 .98.45 1.47.47.48 1.36.48.31 0 .7-.07.39-.09.73-.28.25-.14.45-.12.19.01.3.13.11.12.14.3.02.17-.07.35-.09.18-.3.3-.42.27-.97.4-.54.12-1 .12Zm9.77 0q-.63 0-1.13-.24-.49-.25-.78-.67-.27-.41-.27-.94 0-.64.33-1.01.34-.38 1.09-.55.75-.17 2.02-.17h.6v.86h-.6q-.73 0-1.17.07-.44.07-.64.25-.17.17-.17.48 0 .4.27.64.27.25.76.25.4 0 .7-.17.3-.2.48-.52t.18-.74V18.1q0-.6-.26-.86t-.88-.26q-.35 0-.75.08-.4.09-.84.29-.22.1-.4.06-.17-.05-.27-.2-.1-.15-.1-.33 0-.17.1-.34.1-.18.33-.26.54-.23 1.05-.33.5-.1.93-.1.86 0 1.4.27.56.26.84.8.27.53.27 1.36v2.86q0 .37-.18.58-.17.19-.5.19-.34 0-.53-.2-.18-.2-.18-.57v-.57h.1q-.1.42-.34.73-.24.3-.61.46-.37.17-.85.17Zm13.24 0q-1.3 0-2.25-.52-.93-.54-1.43-1.5-.5-.99-.5-2.3 0-1 .28-1.79.29-.8.83-1.36.53-.57 1.3-.87.8-.3 1.77-.3.66 0 1.3.16.62.17 1.1.48.25.15.33.38.09.21.04.43-.05.2-.2.34-.15.15-.37.17-.22.01-.48-.15-.37-.24-.8-.35-.43-.1-.87-.1-.85 0-1.43.34-.59.34-.88 1-.3.66-.3 1.61 0 .94.3 1.61.3.67.88 1.01.58.35 1.43.35.45 0 .9-.1.44-.13.83-.36.26-.16.47-.14.21.02.35.15.15.13.2.33.04.2-.03.4-.07.21-.29.37-.47.34-1.14.53-.66.18-1.34.18Zm7.19 0q-.9 0-1.57-.37t-1.04-1.05q-.37-.7-.37-1.62 0-.7.2-1.25.22-.56.62-.96.39-.4.94-.6.55-.22 1.23-.22.9 0 1.57.37t1.04 1.05q.37.68.37 1.6 0 .71-.22 1.27-.2.56-.6.97-.39.4-.94.6-.54.21-1.22.21Zm0-1.13q.45 0 .78-.22.34-.21.51-.63.2-.43.2-1.06 0-.96-.41-1.42-.4-.48-1.07-.48-.45 0-.78.22-.33.2-.52.63-.18.42-.18 1.05 0 .94.4 1.43.4.48 1.08.48Zm6.18 1.1q-.35 0-.56-.18-.19-.2-.19-.58V17.1h-.55q-.28 0-.44-.14-.15-.16-.15-.42 0-.28.15-.42.16-.14.44-.14h.98l-.43.4v-.41q0-1.23.62-1.84.62-.62 1.8-.73l.4-.03q.24-.03.38.08.14.1.2.26.04.16 0 .32-.03.17-.15.3-.11.12-.29.13l-.17.02q-.68.04-.99.34-.3.3-.3.9v.45l-.2-.2h1.2q.3 0 .45.15.15.14.15.42 0 .26-.15.42-.16.14-.44.14h-1.02v4.04q0 .77-.74.77Zm4.83 0q-.36 0-.56-.18-.19-.2-.19-.58V17.1h-.55q-.28 0-.44-.14-.15-.16-.15-.42 0-.28.15-.42.16-.14.44-.14h.98l-.43.4v-.41q0-1.23.62-1.84.62-.62 1.8-.73l.4-.03q.23-.03.38.08.14.1.19.26.05.16.01.32-.04.17-.15.3-.11.12-.3.13l-.16.02q-.68.04-.99.34-.3.3-.3.9v.45l-.2-.2h1.2q.3 0 .45.15.15.14.15.42 0 .26-.15.42-.16.14-.44.14h-1.02v4.04q0 .77-.74.77Zm6.65.03q-.99 0-1.7-.37-.72-.37-1.11-1.05-.38-.68-.38-1.6t.36-1.6q.39-.68 1.04-1.06.67-.4 1.52-.4.62 0 1.1.21.5.2.85.59.36.38.54.93.2.53.2 1.21 0 .22-.16.34-.15.1-.42.1h-3.83v-.85h3.35l-.19.17q0-.54-.17-.91-.15-.37-.46-.56-.3-.2-.75-.2-.5 0-.86.23-.35.23-.54.66-.18.42-.18 1v.08q0 .98.46 1.47.46.48 1.36.48.3 0 .69-.07.4-.09.74-.28.25-.14.44-.12.19.01.3.13.12.12.14.3.02.17-.07.35-.08.18-.3.3-.42.27-.97.4-.53.12-1 .12Zm6.99 0q-1 0-1.7-.37-.72-.37-1.12-1.05-.38-.68-.38-1.6t.37-1.6q.38-.68 1.04-1.06.67-.4 1.51-.4.62 0 1.11.21.5.2.85.59.36.38.54.93.19.53.19 1.21 0 .22-.16.34-.14.1-.42.1h-3.82v-.85h3.35l-.2.17q0-.54-.16-.91t-.47-.56q-.3-.2-.75-.2-.5 0-.86.23-.34.23-.53.66-.18.42-.18 1v.08q0 .98.45 1.47.47.48 1.36.48.31 0 .7-.07.39-.09.73-.28.25-.14.44-.12.2.01.3.13.12.12.15.3.02.17-.08.35-.08.18-.3.3-.41.27-.96.4-.54.12-1 .12Z" aria-label="Buy Me a Coffee" font-family="Nunito" font-size="11.93" letter-spacing=".73" style="line-height:1.75"/>
  </g>
</svg>
