<svg xmlns="http://www.w3.org/2000/svg" viewBox="0 0 512 512">
  <path fill="#1da1f2" d="M161 464c193.2 0 299-160 299-298.9 0-4.5 0-9-.3-13.6A213.7 213.7 0 0 0 512 97.2a211 211 0 0 1-60.3 16.5 105.2 105.2 0 0 0 46.1-58.1 210.5 210.5 0 0 1-66.7 25.5 105.2 105.2 0 0 0-179 95.8A298.4 298.4 0 0 1 35.6 67.2a105.6 105.6 0 0 0 32.6 140.2c-16.8-.5-33.1-5-47.7-13.2v1.4c0 49.8 35.4 93 84.3 103a104.9 104.9 0 0 1-47.5 1.7 105.4 105.4 0 0 0 98.2 73A210.8 210.8 0 0 1 0 416.8C48 447.7 104 464 161 464"/>
</svg>
